<svg xmlns="http://www.w3.org/2000/svg" viewBox="0 0 1024 1024">
   <circle cx="512" cy="512" r="512" style="fill:#24e4eb"/>
   <path d="M424.389 257.711c-15.379 2.926-28.629 13.303-35.228 27.618-6.918 14.9-5.588 32.78 3.459 46.509 2.767 4.151 13.995 15.592 93.551 94.882 89.081 88.815 90.464 90.198 92.593 94.402 1.171 2.342 2.554 5.801 3.086 7.716 1.118 4.204 1.224 12.452.267 16.497-.958 3.991-3.832 10.057-6.173 13.144-1.065 1.383-41.401 41.826-89.56 89.879-100.522 100.096-90.358 90.943-100.948 90.943-5.321 0-6.12-.106-8.887-1.49-4.683-2.288-8.088-5.693-10.377-10.376-1.915-3.832-2.022-4.311-2.022-9.1.053-3.991.319-5.8 1.224-8.301 1.171-3.087 3.619-5.588 69.977-71.84 63.485-63.378 68.966-68.966 71.361-73.063 11.281-19.104 10.057-42.785-3.087-59.601-1.33-1.649-22.403-23.041-46.828-47.467l-44.488-44.434v39.379l33.632 33.259c18.465 18.306 34.642 34.642 35.866 36.345 2.98 3.991 4.524 8.195 4.843 13.144.372 4.896-.479 9.047-2.608 13.41-1.49 2.98-7.237 8.834-54.917 56.248-78.545 78.065-81.897 81.418-84.398 85.143-5.055 7.556-7.823 15.911-8.355 25.064-1.277 23.574 14.528 44.541 37.942 50.394 5.694 1.437 17.774 1.277 23.627-.319 5.481-1.437 13.038-5.056 17.082-8.142 5.056-3.831 179.439-177.789 183.111-182.632 15.486-20.488 16.443-49.383 2.342-71.467-2.714-4.204-12.187-13.836-93.924-95.413-74.341-74.181-91.103-91.21-92.061-93.285-2.554-5.748-2.767-11.282-.532-17.135 1.65-4.417 6.918-9.739 11.335-11.388 3.991-1.49 8.301-1.916 12.132-1.171 7.131 1.33-.159-5.641 122.979 116.912 63.804 63.432 114.784 114.624 115.741 116.061 7.078 11.015 7.876 23.467 2.235 35.281l-2.181 4.523-71.84 71.574-71.786 71.573v38.847l20.647-20.541C667.047 606.159 695.57 577.53 698.071 573.964c14.102-19.955 15.485-46.456 3.565-67.21-3.991-6.971-8.727-12.239-28.363-31.609-10.803-10.643-62.155-61.676-114.092-113.347-98.5-98.074-97.276-96.85-105.524-100.628-8.248-3.725-20.275-5.162-29.268-3.459Zm-67.423 101.107v38.847l27.672 27.671V386.49l-27.672-27.672Z" style="fill:#fff;fill-rule:nonzero"/>
</svg>
